# xmcd
#
# Track frame offsets:
#	150
#	12947
#	33995
#	79672
#	98475
#	112495
#	121087
#	136367
#	148782
#	159685
#	172477
#	182800
#	191777
#	205572
#	215400
#
# Disc length: 3023 seconds
#
# Revision: 1
# Processed by: cddbd v1.5.1PL0 Copyright (c) Steve Scherf et al.
# Submitted via: EasyCDDAExtractor 7.0.6.1
#
DISCID=da0bcd0f
DTITLE=Various Artist - Les Meillleurs Du Country Vol. 5
DYEAR=1996
DGENRE=Country
TTITLE0=Wagonneers - Unis devant Dieu, Désunis par le Juge
TTITLE1=André Guitar - La Grenouille
TTITLE2=Wanitou - Madame X
TTITLE3=Chantal Dufour - Un Enfant Oublié
TTITLE4=Sylvie Bélair - Vole Ma Colombe
TTITLE5=Larry Robichaud - La Vie D'un Bûcheron
TTITLE6=Aldei Duguay - Une Femme Infidèle
TTITLE7=Marie King - Un Coin Du Ciel
TTITLE8=Yvan Michaud - Ai-je Trop Attendu?
TTITLE9=Réjean et Chantale Massé - L'hôtel et la Boisson
TTITLE10=Léo Benoît - Tu me Brises le Coeur
TTITLE11=Gérald Poudrier - Au Son d'une Guitare
TTITLE12=Paul Brunnelle - Quand Je Valse Avec Toi
TTITLE13=Denise King - Ne me parle plus jamais d'amour
TTITLE14=Adé Gagnon - Belle Gaspésie
EXTD=
EXTT0=
EXTT1=
EXTT2=
EXTT3=
EXTT4=
EXTT5=
EXTT6=
EXTT7=
EXTT8=
EXTT9=
EXTT10=
EXTT11=
EXTT12=
EXTT13=
EXTT14=
PLAYORDER=
